<svg width="110" height="74" viewBox="0 0 110 74" fill="none" xmlns="http://www.w3.org/2000/svg">
<path fill-rule="evenodd" clip-rule="evenodd" d="M110 18.7164C110 16.6982 107.158 16.5064 106.442 18.3934C98.5715 39.1423 78.5081 53.8908 55 53.8908C31.4919 53.8908 11.4285 39.1423 3.55793 18.3934C2.84217 16.5064 0 16.6982 0 18.7164C0 49.0921 24.6243 73.7164 55 73.7164C85.3757 73.7164 110 49.0921 110 18.7164Z" fill="#8EC057"/>
<path d="M79.6449 0.580031C83.1208 0.590902 86.5828 1.00714 89.9605 1.81945C90.4318 1.93279 90.7473 2.37521 90.6959 2.85721C90.279 6.77065 89.1095 10.5695 87.2489 14.0438C85.2564 17.7644 82.5147 21.0319 79.1964 23.6406C74.8643 26.8974 69.532 28.5425 64.1175 28.2924C62.3885 28.283 60.661 28.1821 58.9427 27.99V71.0983C58.9427 71.6506 58.495 72.0983 57.9427 72.0983H52.0625C51.5102 72.0983 51.0625 71.6506 51.0625 71.0983V27.99C49.344 28.1807 47.6168 28.2805 45.8879 28.289C40.4731 28.5371 35.1406 26.8936 30.8054 23.6406C27.4812 21.0373 24.7353 17.771 22.7422 14.0493C20.8808 10.5734 19.7141 6.77143 19.3041 2.85544C19.2537 2.37419 19.5689 1.93292 20.0393 1.8196C23.4095 1.00772 26.8639 0.591425 30.3325 0.580031C35.711 0.329328 41.0168 1.90108 45.3906 5.04064C49.5159 8.53766 52.8001 12.919 54.9992 17.8591C57.189 12.9145 60.4732 8.53149 64.6042 5.04064C68.9729 1.89887 74.2762 0.326761 79.6519 0.580031H79.6449Z" fill="#8EC057"/>
</svg>
